<svg width="120" height="120" viewBox="0 0 120 120" fill="none" xmlns="http://www.w3.org/2000/svg">
<path d="M60 120C93.1371 120 120 93.1371 120 60C120 26.8629 93.1371 0 60 0C26.8629 0 0 26.8629 0 60C0 93.1371 26.8629 120 60 120Z" fill="#BEB8D8"/>
<path d="M26.2675 41.7398C29.468 41.7398 32.059 39.1829 32.059 36.0234H87.6761C87.6761 39.1829 90.2672 41.7398 93.4676 41.7398V78.3142C90.2672 78.3142 87.6761 80.8711 87.6761 84.027H32.0591C32.0591 80.8711 29.468 78.3142 26.2675 78.3142V41.7398Z" fill="#D8D4E8"/>
<path d="M88.8762 85.2268H30.859V84.0268C30.859 81.539 28.7995 79.514 26.2675 79.514H25.0675V40.5398H26.2675C28.7994 40.5398 30.859 38.5137 30.859 36.0234V34.8234H88.8762V36.0234C88.8762 38.5137 90.9358 40.5398 93.4675 40.5398H94.6675V79.514H93.4675C90.9358 79.514 88.8762 81.539 88.8762 84.0269V85.2269V85.2268ZM33.1535 82.8269H86.5817C87.0897 79.9699 89.3766 77.7116 92.2677 77.2149V42.8366C89.3766 42.341 87.0891 40.0815 86.5816 37.2234H33.1535C32.6462 40.0815 30.3587 42.341 27.4676 42.8366V77.2149C30.3587 77.7116 32.6455 79.9699 33.1535 82.8269Z" fill="#3C4A66"/>
<path d="M35.6063 79.4566C34.5949 77.4563 32.9344 75.8157 30.8989 74.8137V45.2391C32.9344 44.2383 34.5949 42.6 35.6063 40.5938H84.1267C85.1404 42.6 86.8031 44.2383 88.8375 45.2391V74.8137C86.8031 75.8157 85.1404 77.4563 84.1267 79.4566H35.6063Z" fill="#7887A7"/>
<path d="M84.8638 80.6567H34.8679L34.5351 79.998C33.6433 78.2333 32.1632 76.7743 30.3684 75.8907L29.6987 75.5603V44.4914L30.3696 44.1622C32.1644 43.2798 33.6439 41.822 34.5345 40.0537L34.8673 39.3938H84.865L85.1978 40.0524C86.0908 41.8196 87.5715 43.2798 89.3674 44.1621L90.0377 44.4914V75.5603L89.368 75.8907C87.5727 76.7743 86.0915 78.2345 85.1972 79.9992L84.8638 80.6566V80.6567ZM36.3164 78.2567H83.417C84.4336 76.5434 85.899 75.0984 87.6375 74.0954V45.9586C85.8979 44.9555 84.4325 43.5094 83.4164 41.7938H36.317C35.3027 43.5106 33.8386 44.9566 32.0988 45.9586V74.0954C33.8373 75.0984 35.3016 76.5423 36.3164 78.2567Z" fill="#3C4A66"/>
<path d="M74.932 60.0258C74.932 68.2312 68.1879 74.884 59.8676 74.884C51.5449 74.884 44.8031 68.2312 44.8031 60.0258C44.8031 51.8204 51.5449 45.1664 59.8676 45.1664C68.1879 45.1664 74.932 51.8203 74.932 60.0258Z" fill="#BEB8D8"/>
<path d="M52.9863 68.5008L51.3012 66.7923L66.7489 51.5497L68.434 53.2582L52.9863 68.5008Z" fill="#3C4A66"/>
<path d="M57.9374 55.2622C57.9374 56.8394 56.6391 58.1204 55.0395 58.1204C53.441 58.1204 52.1438 56.8394 52.1438 55.2622C52.1438 53.6836 53.441 52.4039 55.0395 52.4039C56.6391 52.4039 57.9375 53.6835 57.9375 55.2622H57.9374Z" fill="#D8D4E8"/>
<path d="M55.0395 59.3204C52.7812 59.3204 50.9437 57.4991 50.9437 55.2621C50.9437 53.0249 52.7812 51.2039 55.0395 51.2039C57.2988 51.2039 59.1375 53.025 59.1375 55.2621C59.1375 57.4991 57.2988 59.3202 55.0395 59.3202V59.3204ZM55.0395 53.6039C54.1043 53.6039 53.3438 54.3481 53.3438 55.2621C53.3438 56.1761 54.1042 56.9202 55.0395 56.9202C55.9757 56.9202 56.7375 56.1761 56.7375 55.2621C56.7375 54.3481 55.9758 53.6039 55.0395 53.6039Z" fill="#3C4A66"/>
<path d="M67.5914 64.7882C67.5914 66.3657 66.2976 67.6477 64.6969 67.6477C63.0985 67.6477 61.8 66.3657 61.8 64.7883C61.8 63.211 63.0985 61.9314 64.6969 61.9314C66.2976 61.9314 67.5914 63.211 67.5914 64.7883V64.7882Z" fill="#D8D4E8"/>
<path d="M64.6969 68.8477C62.438 68.8477 60.6 67.0267 60.6 64.7883C60.6 62.5513 62.438 60.7312 64.6969 60.7312C66.9545 60.7312 68.7914 62.5513 68.7914 64.7883C68.7914 67.0267 66.9545 68.8477 64.6969 68.8477ZM64.6969 63.1313C63.7611 63.1313 63 63.8741 63 64.7883C63 65.7023 63.7611 66.4477 64.6969 66.4477C65.6314 66.4477 66.3914 65.7023 66.3914 64.7883C66.3914 63.8741 65.6314 63.1312 64.6969 63.1312V63.1313Z" fill="#3C4A66"/>
<path d="M41.2675 61.2256H38.8675V58.8257H41.2675V61.2257V61.2256ZM80.8676 61.2256H78.4676V58.8257H80.8676V61.2257V61.2256Z" fill="#3C4A66"/>
</svg>
