<svg width="120" height="120" viewBox="0 0 120 120" fill="none" xmlns="http://www.w3.org/2000/svg">
<path d="M120 60C120 93.1371 93.1359 120 60 120C26.8617 120 0 93.1371 0 60C0 26.8629 26.8617 0 60 0C93.1359 0 120 26.8629 120 60Z" fill="#BEB8D8"/>
<path d="M90 70.8001H78C76.6735 70.8001 75.6 69.7255 75.6 68.4001V61.2C75.6 59.8746 76.6735 58.8 78 58.8H90C91.3243 58.8 92.4 59.8746 92.4 61.2V68.4001C92.4 69.7254 91.3242 70.8001 90 70.8001Z" fill="#D8D4E8"/>
<path d="M90 72.0001H78C76.0149 72.0001 74.4 70.3852 74.4 68.4001V61.2001C74.4 59.215 76.0149 57.6001 78 57.6001H90C91.9852 57.6001 93.6 59.215 93.6 61.2001V68.4001C93.6 70.3852 91.9852 72.0001 90 72.0001ZM78 60.0001C77.3386 60.0001 76.8 60.5391 76.8 61.2001V68.4001C76.8 69.0611 77.3386 69.6001 78 69.6001H90C90.6615 69.6001 91.2 69.0611 91.2 68.4001V61.2001C91.2 60.5391 90.6615 60.0001 90 60.0001H78Z" fill="#566991"/>
<path d="M81.6 67.1999C80.2764 67.1999 79.2 66.1241 79.2 64.7999C79.2 63.4756 80.2764 62.3999 81.6 62.3999C82.9236 62.3999 84 63.4756 84 64.7999C84 66.1241 82.9236 67.1999 81.6 67.1999Z" fill="#566991"/>
<path d="M78 70.8001C76.6735 70.8001 75.6 69.7255 75.6 68.4001V61.2C75.6 59.8746 76.6735 58.8 78 58.8H90V44.4001C90 41.7494 87.8508 39.6 85.2 39.6H32.4C29.7493 39.6 27.6 37.4507 27.6 34.8V85.2C27.6 87.8507 29.7493 90 32.4 90H85.2C87.8508 90 90 87.8507 90 85.2V70.8001H78Z" fill="#7887A7"/>
<path d="M85.2 91.2H32.4C29.0918 91.2 26.4 88.508 26.4 85.2V34.8C26.4 34.1366 26.9374 33.6 27.6 33.6C28.2627 33.6 28.8 34.1366 28.8 34.8C28.8 36.7851 30.4149 38.4 32.4 38.4H85.2C88.5082 38.4 91.2 41.0918 91.2 44.4V58.8C91.2 59.4632 90.6627 60 90 60H78C77.3385 60 76.8 60.539 76.8 61.2V68.4C76.8 69.0609 77.3385 69.6 78 69.6H90C90.6627 69.6 91.2 70.1367 91.2 70.8V85.2C91.2 88.508 88.5082 91.2 85.2 91.2ZM28.8 39.5976V85.2C28.8 87.1852 30.4149 88.8 32.4 88.8H85.2C87.1852 88.8 88.8 87.1852 88.8 85.2V72H78C76.0149 72 74.4 70.3851 74.4 68.4V61.2C74.4 59.2149 76.0149 57.6 78 57.6H88.8V44.4C88.8 42.4148 87.1852 40.8 85.2 40.8H32.4C31.1012 40.8014 29.8373 40.3792 28.8 39.5976Z" fill="#566991"/>
<path d="M85.2 50.4C84.5396 50.4 84 49.8598 84 49.2C84 48.539 84.5396 48 85.2 48C85.8598 48 86.4 48.539 86.4 49.2C86.4 49.8598 85.8598 50.4 85.2 50.4Z" fill="#566991"/>
<path d="M80.4 45.5999C79.7398 45.5999 79.2 45.0597 79.2 44.4C79.2 43.739 79.7398 43.2 80.4 43.2C81.0598 43.2 81.6 43.739 81.6 44.4C81.6 45.0597 81.0598 45.5999 80.4 45.5999ZM75.6 45.5999C74.9397 45.5999 74.4 45.0597 74.4 44.4C74.4 43.739 74.9397 43.2 75.6 43.2C76.2599 43.2 76.8 43.739 76.8 44.4C76.8 45.0597 76.2599 45.5999 75.6 45.5999ZM70.8 45.5999C70.1397 45.5999 69.6 45.0597 69.6 44.4C69.6 43.739 70.1397 43.2 70.8 43.2C71.4598 43.2 72 43.739 72 44.4C72 45.0597 71.4598 45.5999 70.8 45.5999ZM66 45.5999C65.3397 45.5999 64.8 45.0597 64.8 44.4C64.8 43.739 65.3397 43.2 66 43.2C66.6598 43.2 67.2 43.739 67.2 44.4C67.2 45.0597 66.6598 45.5999 66 45.5999ZM61.2 45.5999C60.5397 45.5999 60 45.0597 60 44.4C60 43.739 60.5397 43.2 61.2 43.2C61.8598 43.2 62.4 43.739 62.4 44.4C62.4 45.0597 61.8598 45.5999 61.2 45.5999ZM56.4 45.5999C55.7397 45.5999 55.2 45.0597 55.2 44.4C55.2 43.739 55.7397 43.2 56.4 43.2C57.0598 43.2 57.6 43.739 57.6 44.4C57.6 45.0597 57.0598 45.5999 56.4 45.5999ZM51.6 45.5999C50.9396 45.5999 50.4 45.0597 50.4 44.4C50.4 43.739 50.9396 43.2 51.6 43.2C52.2598 43.2 52.8 43.739 52.8 44.4C52.8 45.0597 52.2598 45.5999 51.6 45.5999ZM46.8 45.5999C46.1396 45.5999 45.6 45.0597 45.6 44.4C45.6 43.739 46.1396 43.2 46.8 43.2C47.4598 43.2 48 43.739 48 44.4C48 45.0597 47.4598 45.5999 46.8 45.5999ZM42 45.5999C41.3396 45.5999 40.8 45.0597 40.8 44.4C40.8 43.739 41.3396 43.2 42 43.2C42.6598 43.2 43.2 43.739 43.2 44.4C43.2 45.0597 42.6598 45.5999 42 45.5999ZM37.2 45.5999C36.5396 45.5999 36 45.0597 36 44.4C36 43.739 36.5396 43.2 37.2 43.2C37.8598 43.2 38.4 43.739 38.4 44.4C38.4 45.0597 37.8598 45.5999 37.2 45.5999Z" fill="#566991"/>
<path d="M85.2 81.5999C84.5396 81.5999 84 81.0597 84 80.4C84 79.739 84.5396 79.2 85.2 79.2C85.8598 79.2 86.4 79.739 86.4 80.4C86.4 81.0597 85.8598 81.5999 85.2 81.5999Z" fill="#566991"/>
<path d="M80.4 86.4C79.7398 86.4 79.2 85.8596 79.2 85.2C79.2 84.539 79.7398 84 80.4 84C81.0598 84 81.6 84.539 81.6 85.2C81.6 85.8596 81.0598 86.4 80.4 86.4ZM75.6 86.4C74.9397 86.4 74.4 85.8596 74.4 85.2C74.4 84.539 74.9397 84 75.6 84C76.2599 84 76.8 84.539 76.8 85.2C76.8 85.8596 76.2599 86.4 75.6 86.4ZM70.8 86.4C70.1397 86.4 69.6 85.8596 69.6 85.2C69.6 84.539 70.1397 84 70.8 84C71.4598 84 72 84.539 72 85.2C72 85.8596 71.4598 86.4 70.8 86.4ZM66 86.4C65.3397 86.4 64.8 85.8596 64.8 85.2C64.8 84.539 65.3397 84 66 84C66.6598 84 67.2 84.539 67.2 85.2C67.2 85.8596 66.6598 86.4 66 86.4ZM61.2 86.4C60.5397 86.4 60 85.8596 60 85.2C60 84.539 60.5397 84 61.2 84C61.8598 84 62.4 84.539 62.4 85.2C62.4 85.8596 61.8598 86.4 61.2 86.4ZM56.4 86.4C55.7397 86.4 55.2 85.8596 55.2 85.2C55.2 84.539 55.7397 84 56.4 84C57.0598 84 57.6 84.539 57.6 85.2C57.6 85.8596 57.0598 86.4 56.4 86.4ZM51.6 86.4C50.9396 86.4 50.4 85.8596 50.4 85.2C50.4 84.539 50.9396 84 51.6 84C52.2598 84 52.8 84.539 52.8 85.2C52.8 85.8596 52.2598 86.4 51.6 86.4ZM46.8 86.4C46.1396 86.4 45.6 85.8596 45.6 85.2C45.6 84.539 46.1396 84 46.8 84C47.4598 84 48 84.539 48 85.2C48 85.8596 47.4598 86.4 46.8 86.4ZM42 86.4C41.3396 86.4 40.8 85.8596 40.8 85.2C40.8 84.539 41.3396 84 42 84C42.6598 84 43.2 84.539 43.2 85.2C43.2 85.8596 42.6598 86.4 42 86.4ZM37.2 86.4C36.5396 86.4 36 85.8596 36 85.2C36 84.539 36.5396 84 37.2 84C37.8598 84 38.4 84.539 38.4 85.2C38.4 85.8596 37.8598 86.4 37.2 86.4Z" fill="#566991"/>
<path d="M85.2 39.6H32.4C29.7493 39.6 27.6 37.4507 27.6 34.8C27.6 32.1492 29.7493 30 32.4 30H80.4C83.0507 30 85.2 32.1492 85.2 34.8V39.6Z" fill="#3C4A66"/>
<path d="M85.2001 40.8001H32.4C29.0918 40.8001 26.4 38.1082 26.4 34.8C26.4 31.4919 29.0918 28.8 32.4 28.8H80.4001C83.7083 28.8 86.4001 31.4919 86.4001 34.8V39.6C86.4001 40.2634 85.8629 40.8001 85.2001 40.8001ZM32.4 31.2001C30.4149 31.2001 28.8 32.8148 28.8 34.8C28.8 36.7853 30.4149 38.4001 32.4 38.4001H84.0001V34.8C84.0001 32.8148 82.3852 31.2001 80.4001 31.2001H32.4Z" fill="#566991"/>
</svg>
