<svg width="120" height="120" viewBox="0 0 120 120" fill="none" xmlns="http://www.w3.org/2000/svg">
<path d="M120 60C120 93.1371 93.1359 120 60 120C26.8617 120 0 93.1371 0 60C0 26.8629 26.8617 0 60 0C93.1359 0 120 26.8629 120 60Z" fill="#7887A7"/>
<path d="M41.7949 86.3366C38.4012 86.3366 35.6402 83.5745 35.6402 80.1796C35.6402 76.7857 38.4012 74.0249 41.7949 74.0249C45.1899 74.0249 47.9532 76.7857 47.9532 80.1796C47.9532 83.5745 45.1899 86.3366 41.7949 86.3366Z" fill="#BEB8D8"/>
<path d="M48.0282 80.7398L47.9238 79.6137C47.6379 76.4788 44.9437 74.025 41.7949 74.025C38.6472 74.025 35.9554 76.4788 35.6696 79.6137L35.5653 80.7399H30.0446C28.8094 80.7399 27.804 79.7366 27.804 78.5003V44.9226C27.804 43.6875 28.8094 42.6842 30.0446 42.6842H63.6222C64.8563 42.6842 65.8606 43.6875 65.8606 44.9226V50.0953L65.8476 50.1867C65.8301 50.2968 65.8101 50.4046 65.8101 50.5195V53.7562L65.8605 54.9961V80.7398H48.028H48.0282Z" fill="#7887A7"/>
<path d="M80.972 86.3366C77.5758 86.3366 74.8148 83.5745 74.8148 80.1796C74.8148 76.7857 77.5758 74.0249 80.972 74.0249C84.3656 74.0249 87.1277 76.7857 87.1277 80.1796C87.1277 83.5745 84.3656 86.3366 80.972 86.3366Z" fill="#BEB8D8"/>
<path d="M87.2028 80.7398L87.0984 79.6137C86.8125 76.4788 84.1207 74.025 80.972 74.025C77.8219 74.025 75.13 76.4788 74.8441 79.6137L74.7398 80.7399H65.8605V52.7578H81.532C82.766 52.7578 83.7691 53.7621 83.7691 54.9961L88.2456 65.0695L94.9629 66.1899H95.1434L95.2875 66.239C96.3972 66.5683 97.2 68.4444 97.2 69.5461V76.2633H90.6048H97.2V78.5003C97.2 79.7367 96.1969 80.7399 94.9629 80.7399H87.2028V80.7398Z" fill="#BEB8D8"/>
<path d="M94.9629 81.9398H88.2456V79.5398H94.9629C95.5347 79.5398 96 79.0735 96 78.5002V69.5461C96 68.6978 95.2928 67.4766 94.9435 67.3875C94.8773 67.3875 94.831 67.384 94.7654 67.3735L88.0481 66.2531C87.8524 66.2205 87.6677 66.1399 87.5108 66.0184C87.3538 65.897 87.2294 65.7384 87.1487 65.5571L82.6723 55.4835C82.6042 55.3301 82.569 55.164 82.5691 54.9962C82.5691 54.423 82.1039 53.9577 81.532 53.9577H65.8605V51.5579H81.532C83.3332 51.5579 84.815 52.95 84.958 54.716L89.0801 63.9914L95.0801 64.9923C97.0809 65.0929 98.4 67.7672 98.4 69.5461V78.5004C98.4 80.3977 96.8584 81.94 94.9629 81.94V81.9398ZM34.52 81.9398H30.0446C28.1472 81.9398 26.6039 80.3977 26.6039 78.5002V63.9493H29.0039V78.5002C29.0039 79.0735 29.4708 79.5398 30.0446 79.5398H34.52V81.9398ZM74.8148 81.9398H47.9531V79.5398H74.8148V81.9398Z" fill="#3C4A66"/>
<path d="M41.7949 87.5368C37.7397 87.5368 34.4402 84.2367 34.4402 80.1797C34.4402 76.125 37.7397 72.8249 41.7949 72.8249C45.8526 72.8249 49.1532 76.125 49.1532 80.1797C49.1532 84.2367 45.8526 87.5368 41.7949 87.5368ZM41.7949 75.225C39.0627 75.225 36.8402 77.4468 36.8402 80.1797C36.8402 82.9126 39.0627 85.1367 41.7949 85.1367C44.5289 85.1367 46.7532 82.9125 46.7532 80.1797C46.7532 77.4469 44.529 75.225 41.7949 75.225ZM80.972 87.5368C76.9154 87.5368 73.6149 84.2367 73.6149 80.1797C73.6149 76.125 76.9155 72.8249 80.972 72.8249C85.0277 72.8249 88.3279 76.125 88.3279 80.1797C88.3279 84.2367 85.0277 87.5368 80.972 87.5368ZM80.972 75.225C78.2386 75.225 76.0149 77.4468 76.0149 80.1797C76.0149 82.9126 78.2386 85.1367 80.972 85.1367C83.7046 85.1367 85.9276 82.9125 85.9276 80.1797C85.9276 77.4469 83.7046 75.225 80.972 75.225ZM96.082 77.4632H89.366V75.0632H96.082V77.4632ZM67.0605 79.6194H64.6605V52.7579H67.0605V79.6194ZM73.6958 71.4914H70.3359V69.0914H73.6958V71.4914Z" fill="#3C4A66"/>
<path d="M67.0605 69.5461H64.6605V44.9227C64.6605 44.3496 64.1948 43.8844 63.6222 43.8844H30.0446C29.4709 43.8844 29.0039 44.3496 29.0039 44.9227V69.5461H26.6039V44.9227C26.6039 43.0266 28.1472 41.4844 30.0446 41.4844H63.6222C65.5184 41.4844 67.0606 43.0266 67.0606 44.9227V69.5461H67.0605Z" fill="#3C4A66"/>
<path d="M62.5031 50.5992H30.0446V48.1992H62.5031V50.5992ZM62.5031 59.5547H30.0446V57.1547H62.5031V59.5547ZM62.5031 68.5077H30.0446V66.1077H62.5031V68.5077Z" fill="#3C4A66"/>
<path d="M69.2192 65.1938C69.2192 65.8126 69.7207 66.3129 70.336 66.3129H82.6512C83.2688 66.3129 83.7691 65.8126 83.7691 65.1937L80.4118 58.4766C80.4118 57.8579 79.9101 57.3574 79.2914 57.3574H70.3359C69.7207 57.3574 69.2191 57.8579 69.2191 58.4766V65.1938H69.2192Z" fill="#D8D4E8"/>
<path d="M82.6512 67.5129H70.3359C69.0587 67.5129 68.0191 66.4724 68.0191 65.1937V58.4767C68.0191 57.1981 69.0587 56.1575 70.3359 56.1575H79.2914C80.4586 56.1575 81.4276 57.0236 81.5882 58.1473L84.8425 64.657C84.9259 64.8237 84.9693 65.0075 84.9691 65.1938C84.9691 66.4722 83.9291 67.513 82.6511 67.513L82.6512 67.5129ZM79.2118 58.4767L70.3359 58.5575L70.4191 65.1938L82.3882 65.1141L79.3383 59.0134C79.2551 58.847 79.2118 58.664 79.2118 58.4767Z" fill="#3C4A66"/>
<path d="M39.1663 31.2633C45.5555 31.2633 50.734 36.4429 50.734 42.8296C50.734 49.2188 45.5555 54.3961 39.1665 54.3961C32.7774 54.3961 27.6 49.2188 27.6 42.8298C27.6 36.443 32.7774 31.2633 39.1663 31.2633Z" fill="#BEB8D8"/>
<path d="M39.1663 55.5961C32.127 55.5961 26.4 49.8704 26.4 42.8298C26.4 35.7914 32.127 30.0632 39.1663 30.0632C46.2064 30.0632 51.934 35.7914 51.934 42.8297C51.934 49.8704 46.2064 55.596 39.1665 55.596L39.1663 55.5961ZM39.1663 32.4632C33.4506 32.4632 28.8 37.1145 28.8 42.8297C28.8 48.5461 33.4505 53.196 39.1663 53.196C44.8834 53.196 49.534 48.5461 49.534 42.8297C49.534 37.1145 44.8834 32.4634 39.1665 32.4634L39.1663 32.4632Z" fill="#3C4A66"/>
<path d="M45.777 43.9922H37.9489V33.7922H40.3489V41.5922H45.777V43.9922Z" fill="#3C4A66"/>
</svg>
